<svg xmlns="http://www.w3.org/2000/svg" viewBox="0 0 256 256" width="256" height="256" role="img" aria-label="Inky">
  <rect width="256" height="256" rx="56" fill="#5865F2"/>
  <!-- octopus body: rounded head with a wavy tentacle hem -->
  <path fill="#FFFFFF" d="M128 48 C90 48 62 76 62 114 V150 c0 0 -2 14 -14 20 c-8 5 -4 16 6 16 c12 0 20 -6 24 -14 c4 9 10 14 18 14 c8 0 13 -5 16 -13 c3 8 9 13 16 13 c7 0 13 -5 16 -13 c3 8 8 13 16 13 c8 0 14 -5 18 -14 c4 8 12 14 24 14 c10 0 14 -11 6 -16 c-12 -6 -14 -20 -14 -20 V114 C194 76 166 48 128 48 Z"/>
  <!-- eyes -->
  <circle cx="110" cy="116" r="11" fill="#23272A"/>
  <circle cx="146" cy="116" r="11" fill="#23272A"/>
  <circle cx="114" cy="112" r="3.5" fill="#FFFFFF"/>
  <circle cx="150" cy="112" r="3.5" fill="#FFFFFF"/>
  <!-- smile -->
  <path d="M120 138 q8 8 16 0" stroke="#23272A" stroke-width="4" fill="none" stroke-linecap="round"/>
</svg>
