<svg xmlns="http://www.w3.org/2000/svg" viewBox="0 0 680 240" width="680" height="240">
  <defs>
    <linearGradient id="bg" x1="0" y1="0" x2="1" y2="1">
      <stop offset="0" stop-color="#5865F2"/>
      <stop offset="1" stop-color="#4752C4"/>
    </linearGradient>
  </defs>
  <rect width="680" height="240" fill="url(#bg)"/>
  <!-- octopus mascot (left) -->
  <g transform="translate(-8,-12) scale(1.18)">
    <path fill="#FFFFFF" d="M128 48 C90 48 62 76 62 114 V150 c0 0 -2 14 -14 20 c-8 5 -4 16 6 16 c12 0 20 -6 24 -14 c4 9 10 14 18 14 c8 0 13 -5 16 -13 c3 8 9 13 16 13 c7 0 13 -5 16 -13 c3 8 8 13 16 13 c8 0 14 -5 18 -14 c4 8 12 14 24 14 c10 0 14 -11 6 -16 c-12 -6 -14 -20 -14 -20 V114 C194 76 166 48 128 48 Z"/>
    <circle cx="110" cy="116" r="11" fill="#23272A"/>
    <circle cx="146" cy="116" r="11" fill="#23272A"/>
    <circle cx="114" cy="112" r="3.5" fill="#FFFFFF"/>
    <circle cx="150" cy="112" r="3.5" fill="#FFFFFF"/>
    <path d="M120 138 q8 8 16 0" stroke="#23272A" stroke-width="4" fill="none" stroke-linecap="round"/>
  </g>
  <!-- wordmark (right) -->
  <text x="250" y="112" font-family="Helvetica, Arial, sans-serif" font-size="80" font-weight="700" fill="#FFFFFF">Inky</text>
  <text x="252" y="156" font-family="Helvetica, Arial, sans-serif" font-size="22" font-weight="500" fill="#EAECFF">Your team's standup, written for you.</text>
  <text x="252" y="190" font-family="Helvetica, Arial, sans-serif" font-size="18" font-weight="400" fill="#C7CCF5">github.com/Doppel-Labs/inky</text>
</svg>
